<?xml version="1.0" encoding="UTF-8"?>
<svg version="1.1" xmlns="http://www.w3.org/2000/svg" width="916" height="1090">
<path d="M0 0 C1.16520931 10.5299287 1.14041662 21.00743939 1.12698364 31.58435059 C1.12813728 33.56776251 1.12972644 35.55117421 1.13171089 37.53458548 C1.13587429 42.96555493 1.13382664 48.39650675 1.13072467 53.82747626 C1.12845717 59.69850771 1.13195787 65.56953617 1.13470459 71.44056702 C1.13915477 82.96146137 1.13818683 94.4823492 1.13529195 106.0032438 C1.1329883 115.42470434 1.13270511 124.84616316 1.13381577 134.2676239 C1.13393034 135.27639791 1.13393034 135.27639791 1.13404724 136.30555118 C1.1343587 139.03743446 1.13467711 141.76931773 1.135007 144.50120101 C1.13806928 170.17153798 1.13529341 195.84187146 1.1299101 221.51220789 C1.1252161 244.06494389 1.12554441 266.61767422 1.13037109 289.17041016 C1.1358068 314.65264361 1.13780066 340.13487392 1.13475883 365.61710787 C1.13443831 368.37342612 1.13412545 371.12974437 1.13381577 373.88606262 C1.13373669 374.56444872 1.13365761 375.24283482 1.13357614 375.94177807 C1.13246613 385.92970735 1.13374818 395.91763423 1.13629532 405.90556335 C1.14857114 459.37875528 1.06615167 512.85031098 0.64392003 566.32205951 C0.61692119 569.89833234 0.59336829 573.47461232 0.57081437 577.05091572 C0.53529164 582.59888311 0.48998614 588.14668361 0.43676153 593.69450867 C0.41875492 595.71921082 0.40394522 597.74394434 0.39259753 599.76869476 C0.37639638 602.53386155 0.34811832 605.29865214 0.31674004 608.06368256 C0.31478849 608.85839916 0.31283694 609.65311576 0.31082625 610.47191468 C0.15275183 621.24411029 -3.1994208 631.27663217 -10.625 639.25 C-21.12115983 649.03321313 -32.46662106 651.3065921 -46.31513977 651.26069641 C-47.54336321 651.26452196 -48.77158664 651.26834751 -50.03702897 651.27228898 C-53.42966581 651.28079777 -56.82208496 651.28039469 -60.21471536 651.27610838 C-63.88013423 651.2736358 -67.54552792 651.28266196 -71.2109375 651.29014587 C-78.38579188 651.30288052 -85.56060882 651.30468807 -92.7354726 651.30234561 C-98.56947872 651.30056077 -104.40347349 651.30231566 -110.23747826 651.30657005 C-111.06860212 651.30716524 -111.89972598 651.30776043 -112.75603541 651.30837366 C-114.4446171 651.30958544 -116.13319878 651.31079958 -117.82178047 651.31201603 C-133.64975774 651.322887 -149.47771369 651.32073129 -165.30569216 651.31463119 C-179.77309871 651.30946348 -194.2404379 651.32071441 -208.70783112 651.33972941 C-223.57571703 651.35912041 -238.4435711 651.36736152 -253.31146973 651.36360615 C-261.6535086 651.36169589 -269.99549016 651.36416453 -278.33751869 651.37832069 C-285.43994208 651.39025163 -292.54227288 651.39162029 -299.64469758 651.37953053 C-303.26532752 651.37365358 -306.88578825 651.37250935 -310.50640678 651.38453293 C-314.43899083 651.39744022 -318.37132029 651.38689896 -322.3039093 651.3742218 C-323.43758653 651.38159609 -324.57126375 651.38897037 -325.73929483 651.39656812 C-339.42607892 651.30399452 -349.22780215 647.52287465 -359.25 638.25 C-369.61958053 627.4259757 -370.29903886 614.56353331 -370.27415466 600.37286377 C-370.27861041 598.77250982 -370.28392556 597.17215807 -370.29002339 595.57180953 C-370.30417197 591.18518061 -370.30586728 586.79862266 -370.30542648 582.41197419 C-370.30707733 577.67714622 -370.32014833 572.94234726 -370.33161926 568.20753479 C-370.35444153 557.86302893 -370.36238592 547.51854362 -370.36744571 537.174016 C-370.37070397 530.71677406 -370.37722697 524.25953807 -370.3844471 517.8022995 C-370.40400429 499.92639992 -370.42041536 482.05050585 -370.42332363 464.17459488 C-370.4235112 463.03141654 -370.42369877 461.8882382 -370.42389202 460.71041809 C-370.42425827 458.39294958 -370.42462197 456.07548107 -370.42498314 453.75801256 C-370.42516595 452.60761939 -370.42534876 451.45722622 -370.42553711 450.27197266 C-370.42571766 449.12017799 -370.42589821 447.96838333 -370.42608423 446.7816858 C-370.42963049 428.09335035 -370.456685 409.40512978 -370.494035 390.71683422 C-370.5320683 371.53346494 -370.55148071 352.35015278 -370.55178314 333.16674495 C-370.5523686 322.39417921 -370.56091845 311.62175077 -370.58978081 300.84922028 C-370.6142274 291.68282253 -370.62162278 282.51661222 -370.60653328 273.35019073 C-370.59933844 268.6711367 -370.60033229 263.99245336 -370.62294388 259.31344032 C-370.64342772 255.03391682 -370.64103392 250.75505149 -370.62006903 246.47553596 C-370.61655384 244.92389237 -370.62156933 243.37220229 -370.63577347 241.82061973 C-370.65379253 239.71752719 -370.64125362 237.61678582 -370.62082577 235.51376724 C-370.62164022 234.34400856 -370.62245468 233.17424988 -370.62329382 231.96904397 C-370 229 -370 229 -367.5896011 226.67722487 C-366.30774856 225.84699856 -366.30774856 225.84699856 -365 225 C-364.32203369 224.55470947 -363.64406738 224.10941895 -362.94555664 223.65063477 C-361.93803345 223.05206665 -361.93803345 223.05206665 -360.91015625 222.44140625 C-360.13655762 221.97943848 -359.36295898 221.5174707 -358.56591797 221.04150391 C-357.73979004 220.55343262 -356.91366211 220.06536133 -356.0625 219.5625 C-355.19512207 219.04606934 -354.32774414 218.52963867 -353.43408203 217.99755859 C-350.62537856 216.32717987 -347.81313986 214.66289519 -345 213 C-344.03529785 212.42910645 -343.0705957 211.85821289 -342.07666016 211.27001953 C-338.28177485 209.02468606 -334.48648906 206.78005856 -330.68774414 204.54125977 C-325.54811676 201.51207711 -320.42535366 198.45775071 -315.32324219 195.36572266 C-312.8734983 193.92563572 -310.38618675 192.57962896 -307.875 191.25 C-302.39683712 188.30141375 -297.17112317 185.00915935 -291.91918945 181.68164062 C-287.19186788 178.70177694 -282.37878167 175.97890652 -277.44140625 173.359375 C-275.03127096 172.01741167 -272.775798 170.5573362 -270.5 169 C-266.43527703 166.22039371 -262.21737749 163.88169727 -257.87890625 161.55859375 C-250.71371013 157.67947129 -243.73932868 153.47471526 -236.8125 149.1875 C-231.54623838 145.93593411 -226.25630057 142.72746705 -220.9375 139.5625 C-220.21087158 139.12510498 -219.48424316 138.68770996 -218.7355957 138.23706055 C-218.04812256 137.83011963 -217.36064941 137.42317871 -216.65234375 137.00390625 C-215.73956665 136.45972046 -215.73956665 136.45972046 -214.80834961 135.90454102 C-213 135 -213 135 -209 134 C-209 153.8 -209 173.6 -209 194 C-195.47 194 -181.94 194 -168 194 C-168.0928125 187.86148438 -168.185625 181.72296875 -168.28125 175.3984375 C-168.32213326 171.50644266 -168.36064391 167.61471303 -168.390625 163.72265625 C-168.43842665 157.54647761 -168.49493417 151.37124887 -168.60351562 145.19580078 C-168.69052387 140.21606685 -168.73829111 135.2373515 -168.75901794 130.25691605 C-168.77378544 128.35819079 -168.80262491 126.45952054 -168.84584045 124.56122971 C-169.17089712 109.68951854 -169.17089712 109.68951854 -166.31340027 105.56636047 C-164.25952062 103.9948353 -162.38503759 102.97747857 -160 102 C-159.23469971 101.47978271 -158.46939941 100.95956543 -157.6809082 100.42358398 C-157.06046631 100.03501221 -156.44002441 99.64644043 -155.80078125 99.24609375 C-155.07745605 98.79097412 -154.35413086 98.33585449 -153.60888672 97.86694336 C-152.8510791 97.39522705 -152.09327148 96.92351074 -151.3125 96.4375 C-150.49797363 95.92646729 -149.68344727 95.41543457 -148.84423828 94.88891602 C-141.82485363 90.4926208 -134.77283818 86.14890649 -127.72265625 81.80224609 C-121.32183482 77.84578597 -114.99270514 73.78903436 -108.69018555 69.67822266 C-104.3618304 66.86080195 -99.98111621 64.16435963 -95.53149414 61.54174805 C-92.81630919 59.88812736 -90.17610581 58.14867073 -87.53515625 56.37890625 C-86.47852783 55.6717749 -85.42189941 54.96464355 -84.33325195 54.23608398 C-83.22209919 53.49082519 -82.11101543 52.74546351 -81 52 C-54.07732306 33.95230767 -54.07732306 33.95230767 -44.23120117 27.91552734 C-35.06901989 22.251546 -26.17103529 16.1654314 -17.22265625 10.171875 C-15.63155029 9.10743164 -15.63155029 9.10743164 -14.00830078 8.02148438 C-12.08455127 6.72878465 -10.16573408 5.4286947 -8.25341797 4.11914062 C-7.44662598 3.56935547 -6.63983398 3.01957031 -5.80859375 2.453125 C-5.11435303 1.97520508 -4.4201123 1.49728516 -3.70483398 1.00488281 C-2 0 -2 0 0 0 Z M-215 213 C-215.33 223.56 -215.66 234.12 -216 245 C-218.371875 245.70125 -220.74375 246.4025 -223.1875 247.125 C-246.56071165 254.31602283 -265.19774938 267.1121174 -278 288 C-278.57492187 288.91523437 -279.14984375 289.83046875 -279.7421875 290.7734375 C-288.92971658 306.36024056 -291.88391827 327.05398357 -287.62109375 344.72265625 C-287.31365234 345.84994141 -287.31365234 345.84994141 -287 347 C-286.80535156 347.78246094 -286.61070312 348.56492187 -286.41015625 349.37109375 C-284.45053459 356.61821526 -281.2644132 363.25988472 -278 370 C-277.34 370 -276.68 370 -276 370 C-275.566875 371.1446875 -275.566875 371.1446875 -275.125 372.3125 C-274.03730987 375.15029308 -274.03730987 375.15029308 -272 378 C-271.34 378 -270.68 378 -270 378 C-269.773125 378.556875 -269.54625 379.11375 -269.3125 379.6875 C-258.89836304 398.03621749 -231.86008221 409.28522688 -213.91259766 417.62646484 C-208.84021791 420.0185192 -203.86613547 422.5974854 -198.890625 425.18359375 C-195.64931015 426.77596706 -192.32079796 428.04186512 -188.94140625 429.3125 C-181.69085425 432.05706217 -174.6997253 435.26329925 -167.6875 438.5625 C-166.46566941 439.1325359 -165.24366456 439.70219842 -164.02148438 440.27148438 C-160.67521241 441.83576132 -157.33641654 443.41483558 -154 445 C-153.19087158 445.37721191 -152.38174316 445.75442383 -151.5480957 446.14306641 C-143.02852367 450.2142955 -134.71328717 457.07083969 -131 466 C-128.72075642 476.62185951 -128.75140403 488.79753261 -134.625 498.27734375 C-142.69026859 508.38184219 -156.16673754 513.16733132 -168.58691406 514.77294922 C-194.9632953 517.25474146 -221.52142776 512.72428019 -242.7109375 495.83984375 C-250.81152917 488.74878527 -257.22276489 481.0536791 -263 472 C-268.684223 476.07240571 -273.83095569 480.47650859 -278.875 485.3125 C-280.27017491 486.63480963 -281.66600766 487.95642553 -283.0625 489.27734375 C-283.7328125 489.91269043 -284.403125 490.54803711 -285.09375 491.20263672 C-296.03181029 501.51590515 -296.03181029 501.51590515 -299 503 C-299 503.66 -299 504.32 -299 505 C-300.32 505.66 -301.64 506.32 -303 507 C-295.97215653 525.79695932 -279.02268429 540.25786356 -262.66650391 550.90625 C-261.11855058 551.92219359 -259.59517251 552.97531414 -258.07421875 554.03125 C-243.43681293 563.4051414 -220.46225786 571.36427635 -203 571 C-203.00870117 572.46554321 -203.00870117 572.46554321 -203.01757812 573.96069336 C-203.06500166 585.83490827 -202.81254866 597.69299253 -202.5 609.5625 C-202.45162613 611.46028145 -202.403448 613.3580679 -202.35546875 615.25585938 C-202.23958374 619.8373135 -202.11971828 624.41863815 -202 629 C-190.78 629 -179.56 629 -168 629 C-167.25771945 625.28859723 -166.85779801 622.36499772 -166.79467773 618.65893555 C-166.77473251 617.6182341 -166.75478729 616.57753265 -166.73423767 615.5052948 C-166.71752518 614.3936647 -166.70081268 613.28203461 -166.68359375 612.13671875 C-166.66281265 610.98959915 -166.64203156 609.84247955 -166.62062073 608.66059875 C-166.55533381 605.00295902 -166.49633714 601.34524862 -166.4375 597.6875 C-166.39429496 595.20507087 -166.35068003 592.72264884 -166.30664062 590.24023438 C-166.19967378 584.16023055 -166.09786886 578.08015671 -166 572 C-164.94943924 571.75436562 -164.94943924 571.75436562 -163.87765503 571.50376892 C-160.6439726 570.74509689 -157.4118401 569.98000594 -154.1796875 569.21484375 C-153.07842529 568.95747437 -151.97716309 568.70010498 -150.8425293 568.43493652 C-136.40489831 565.0051344 -121.95974151 561.12250464 -110 552 C-109.16597656 551.37222656 -108.33195313 550.74445313 -107.47265625 550.09765625 C-104.93091597 548.11987683 -102.46180736 546.07617615 -100 544 C-99.1646875 543.32324219 -98.329375 542.64648438 -97.46875 541.94921875 C-86.29703187 532.5187715 -79.31054768 520.43235324 -74 507 C-73.56429687 505.91074219 -73.12859375 504.82148437 -72.6796875 503.69921875 C-69.85580366 495.13870376 -69.62300069 486.83321421 -69.5625 477.875 C-69.55226807 476.70751221 -69.54203613 475.54002441 -69.53149414 474.3371582 C-69.70516242 457.07598893 -75.37721503 441.78615017 -84 427 C-84.66 427 -85.32 427 -86 427 C-86.24492187 426.43925781 -86.48984375 425.87851562 -86.7421875 425.30078125 C-96.51879762 407.41747888 -118.25696816 396.28786356 -136 388 C-137.06605469 387.50032715 -138.13210938 387.0006543 -139.23046875 386.48583984 C-146.33798752 383.15981036 -153.456071 379.85729516 -160.58422852 376.57568359 C-162.90464348 375.50528418 -165.22276831 374.42990906 -167.53881836 373.35009766 C-168.67327393 372.82206543 -169.80772949 372.2940332 -170.9765625 371.75 C-171.9867041 371.27820313 -172.9968457 370.80640625 -174.03759766 370.3203125 C-177.05273066 368.97649848 -180.09613387 367.78138556 -183.1875 366.625 C-217.88330379 353.50367784 -217.88330379 353.50367784 -227 340 C-230.19135696 332.26749904 -230.23024043 323.52578425 -227.5 315.625 C-223.45851838 306.96668695 -216.41534706 303.34264064 -207.83203125 299.9453125 C-189.90624054 293.96180719 -168.72133198 298.13395864 -151.89453125 305.5 C-147.5218918 307.7659832 -143.51443067 310.48914061 -139.49609375 313.328125 C-137.03712169 315.13496181 -137.03712169 315.13496181 -134 316 C-134 316.66 -134 317.32 -134 318 C-132.55139313 319.25106957 -131.09723133 320.49699773 -129.6015625 321.69140625 C-127.59523412 323.33072334 -125.79585899 325.13506951 -124 327 C-119.43731994 323.27536321 -115.57411955 319.45508029 -111.77734375 314.9609375 C-109.4876689 312.43474679 -106.96036949 310.33145556 -104.28515625 308.2265625 C-103.86105469 307.82179688 -103.43695313 307.41703125 -103 307 C-103 306.34 -103 305.68 -103 305 C-102.34 305 -101.68 305 -101 305 C-101 304.34 -101 303.68 -101 303 C-100.34 303 -99.68 303 -99 303 C-97.36324492 301.38200498 -97.36324492 301.38200498 -95.6875 299.3125 C-92.91500692 296.04699036 -90.07399141 292.98084015 -87 290 C-90.73218256 282.13451245 -96.2668958 276.38866943 -103 271 C-103.50015625 270.59958496 -104.0003125 270.19916992 -104.515625 269.78662109 C-106.19097485 268.45282322 -107.87463158 267.13041473 -109.5625 265.8125 C-110.09238525 265.39629395 -110.62227051 264.98008789 -111.16821289 264.55126953 C-125.56598183 253.48083719 -148.39708845 243 -167 243 C-166.99476318 242.09644775 -166.98952637 241.19289551 -166.98413086 240.26196289 C-166.96712314 236.92048511 -166.95456667 233.57905308 -166.94506836 230.23754883 C-166.94002899 228.78929927 -166.93319747 227.34105483 -166.92456055 225.89282227 C-166.91247753 223.81525412 -166.90676789 221.73775303 -166.90234375 219.66015625 C-166.89710693 218.40855713 -166.89187012 217.15695801 -166.88647461 215.86743164 C-166.67112965 213.10267706 -166.67112965 213.10267706 -168 212 C-171.04405983 211.89873514 -174.06494163 211.86032375 -177.109375 211.8671875 C-178.02833557 211.86623077 -178.94729614 211.86527405 -179.894104 211.86428833 C-181.84444242 211.86360618 -183.7947831 211.8654629 -185.74511719 211.86962891 C-188.72335975 211.87495238 -191.70144982 211.86969774 -194.6796875 211.86328125 C-196.572917 211.8639425 -198.4661464 211.86522464 -200.359375 211.8671875 C-201.24913025 211.86516327 -202.1388855 211.86313904 -203.05560303 211.86105347 C-203.89286926 211.86420563 -204.7301355 211.86735779 -205.59277344 211.87060547 C-206.69078278 211.87179886 -206.69078278 211.87179886 -207.81097412 211.87301636 C-210.49005613 211.97754477 -210.49005613 211.97754477 -215 213 Z " fill="#4DAB9F" transform="translate(591,418)"/>
<path d="M0 0 C2.18017578 0.35961914 2.18017578 0.35961914 4 1 C4.01737589 48.11288365 4.03325467 95.22576754 4.04234314 142.33865356 C4.04255023 143.40928019 4.04255023 143.40928019 4.04276149 144.50153564 C4.04576449 160.06728823 4.04853317 175.63304085 4.05106533 191.19879352 C4.0523111 198.84818657 4.05360787 206.49757962 4.05493164 214.14697266 C4.0550624 214.90759559 4.05519316 215.66821853 4.05532788 216.45189064 C4.05910027 238.27227014 4.06525267 260.0926476 4.07373969 281.91302577 C4.10175401 354.03997891 4.09999317 426.16683097 4.02408302 504.80371118 C4.02126057 507.70253005 4.01845402 510.60134894 4.01566315 513.50016785 C4.01497127 514.21852244 4.0142794 514.93687704 4.01356656 515.67699995 C4.00302227 526.72910839 3.9954607 537.78121648 3.98946381 548.83332825 C3.97181183 580.68973776 3.93987373 612.54601441 3.8618781 644.40234053 C3.85524312 647.13557843 3.84866618 649.86881646 3.84213066 652.6020546 C3.83970573 653.60957648 3.83970573 653.60957648 3.8372318 654.63745234 C3.81348284 664.66050307 3.80349896 674.68349069 3.80116463 684.70656967 C3.79848741 695.93224781 3.77905014 707.15773288 3.73698996 718.38333562 C3.71616339 724.0680759 3.70321736 729.75253712 3.71192622 735.43731546 C3.71966525 740.62815869 3.70434467 745.81840903 3.6707943 751.00914492 C3.66271161 752.87844263 3.66295347 754.74779972 3.67256225 756.61709021 C3.73693244 770.45822711 2.00033174 782.50669416 -8 793 C-17.30590769 801.33733363 -26.58516014 803.15136288 -38.79394531 803.14526367 C-39.76386917 803.14862228 -40.73379303 803.1519809 -41.73310852 803.15544128 C-44.93146047 803.16491999 -48.12975988 803.16689295 -51.328125 803.16796875 C-53.56003847 803.17118382 -55.79195172 803.17454808 -58.02386475 803.17805481 C-62.70097339 803.18403863 -67.37806358 803.18589551 -72.05517578 803.18530273 C-78.03125461 803.18520124 -84.0072143 803.19884409 -89.98326492 803.21607494 C-94.59367409 803.22722635 -99.20405475 803.22922096 -103.81447601 803.22869301 C-106.01675578 803.22986875 -108.21903638 803.2342676 -110.4213028 803.24202538 C-113.51044408 803.25188727 -116.59933066 803.24892265 -119.68847656 803.24291992 C-120.58752213 803.24853943 -121.48656769 803.25415894 -122.41285706 803.25994873 C-134.01246081 803.20303669 -143.60004254 800.9696155 -152.265625 792.88671875 C-160.47531612 784.08410549 -164.30988482 774.793921 -164.2784729 762.74615479 C-164.28426583 761.93661183 -164.29005877 761.12706888 -164.29602724 760.29299432 C-164.31303125 757.57321862 -164.31591145 754.85361371 -164.31884766 752.13378906 C-164.32816751 750.15554884 -164.33833166 748.17731244 -164.34926319 746.19908047 C-164.3768723 740.72275503 -164.39185008 735.24645582 -164.40467906 729.77007842 C-164.42073618 723.77319058 -164.44783163 717.77634974 -164.47315979 711.77949524 C-164.52156055 699.82224758 -164.55807918 687.86499504 -164.59017223 675.90769571 C-164.61473625 666.77417156 -164.64231639 657.64066256 -164.67256332 648.50715547 C-164.97060881 558.46500697 -165.09455703 468.42220682 -165.17658204 330.70295729 C-165.18292558 315.90580532 -165.19302038 301.10866057 -165.2058272 286.31151285 C-165.22244318 267.07029145 -165.23208873 247.82908653 -165.22985047 228.58785743 C-165.22890636 219.18993732 -165.23103297 209.79204344 -165.24185371 200.3941288 C-165.25087723 192.53936834 -165.25321443 184.68464358 -165.24645326 176.82988014 C-165.24322734 172.85558063 -165.24320234 168.88135016 -165.25187993 164.90705729 C-165.25970999 161.28520977 -165.25834839 157.6634876 -165.24958753 154.04164328 C-165.24731751 152.11709481 -165.25489255 150.19254248 -165.26282412 148.26800901 C-165.25822552 147.12464745 -165.25362692 145.98128589 -165.24888897 144.80327702 C-165.24921502 143.32840103 -165.24921502 143.32840103 -165.24954766 141.82372957 C-164.90594821 137.93576714 -164.13352057 134.33864491 -161.57397461 131.31591797 C-161.02233643 130.87908691 -160.47069824 130.44225586 -159.90234375 129.9921875 C-159.27424805 129.4866333 -158.64615234 128.9810791 -157.99902344 128.46020508 C-157.3187207 127.9370874 -156.63841797 127.41396973 -155.9375 126.875 C-155.23012695 126.31514404 -154.52275391 125.75528809 -153.79394531 125.1784668 C-148.04272365 120.67781324 -142.09522043 116.4728029 -136.09106445 112.31884766 C-130.71493944 108.57834087 -125.73620247 104.55631492 -120.7578125 100.296875 C-118.08015498 98.06675797 -115.33762664 96.0211016 -112.5 94 C-107.51261395 90.43961997 -102.8431164 86.58643169 -98.1640625 82.6328125 C-94.86069637 79.85964181 -91.46771737 77.20886183 -88.0625 74.5625 C-82.7523531 70.43116317 -77.59158042 66.15605884 -72.48168945 61.78027344 C-69.04112496 58.84531542 -65.51706183 56.10296839 -61.8671875 53.4375 C-59.77133776 51.82395877 -57.83275525 50.09097363 -55.875 48.3125 C-52.15607524 44.9444172 -48.28751679 41.86566283 -44.3125 38.8125 C-38.56313946 34.37910768 -33.24066335 29.61909102 -27.97216797 24.62841797 C-24.00672971 20.88632177 -19.90537046 17.45174858 -15.58203125 14.125 C-13.50364525 12.41449775 -11.57433954 10.6745302 -9.63671875 8.8125 C-9.0547876 8.25570557 -8.47285645 7.69891113 -7.87329102 7.12524414 C-6.72645459 6.01812499 -5.5897653 4.90037652 -4.46459961 3.77124023 C-2.8828125 2.24609375 -2.8828125 2.24609375 0 0 Z " fill="#75B953" transform="translate(796,253)"/>
<path d="M0 0 C0.14521523 5.10487395 -0.36242872 9.81561619 -1.37109375 14.80078125 C-1.52455765 15.589189 -1.67802155 16.37759674 -1.83613586 17.18989563 C-2.17967912 18.95186985 -2.5261615 20.7132728 -2.87512207 22.47418213 C-3.89253308 27.6090491 -4.88843235 32.74810557 -5.88671875 37.88671875 C-6.23314926 39.66592712 -6.23314926 39.66592712 -6.58657837 41.4810791 C-8.65065219 52.11626688 -10.65441519 62.76242852 -12.64828682 73.41097832 C-13.20913571 76.40576851 -13.77070831 79.40042213 -14.33250427 82.39503479 C-14.71134063 84.41464113 -15.09017057 86.43424868 -15.46899414 88.45385742 C-15.65757586 89.45923207 -15.84615759 90.46460672 -16.04045391 91.50044727 C-16.98571576 96.54181912 -17.92920357 101.58351181 -18.86911011 106.62588501 C-19.77243132 111.47134853 -20.68080337 116.31584213 -21.59242821 121.15974998 C-21.92918667 122.95401209 -22.26418682 124.74860538 -22.59716225 126.54357338 C-24.53723989 136.99685338 -26.70676866 147.3563411 -29.24497604 157.68229103 C-31.46345235 166.7239299 -33.17644844 175.84906294 -34.875 185 C-35.21375177 186.80218159 -35.5530364 188.60426309 -35.89282227 190.40625 C-36.76103157 195.01629216 -37.62382981 199.62732535 -38.48455811 204.23876953 C-39.81044663 211.34157554 -41.1411906 218.44346208 -42.47686768 225.54443359 C-42.93050585 227.96271516 -43.38022704 230.38170212 -43.82958984 232.80078125 C-44.10369554 234.26304813 -44.37793879 235.72528924 -44.65234375 237.1875 C-44.88945068 238.45980469 -45.12655762 239.73210937 -45.37084961 241.04296875 C-46 244 -46 244 -47 246 C-47.66 246 -48.32 246 -49 246 C-59.71165549 224.83937266 -69.54564927 203.29733137 -79.32617188 181.6953125 C-81.54534319 176.79440359 -83.77201157 171.8969059 -86 167 C-90.22561685 168.89937366 -92.55353924 171.78919448 -95.4375 175.3125 C-101.36077872 182.34954252 -107.69595452 188.93073791 -114.1875 195.4375 C-114.65856171 195.91337555 -115.12962341 196.3892511 -115.61495972 196.87954712 C-116.96023036 198.23660269 -118.31392948 199.58528719 -119.66796875 200.93359375 C-120.45453857 201.71790771 -121.2411084 202.50222168 -122.05151367 203.31030273 C-124 205 -124 205 -126 205 C-126 205.66 -126 206.32 -126 207 C-127.43359375 208.41015625 -127.43359375 208.41015625 -129.4375 210.0625 C-132.55695946 212.70583144 -135.46544593 215.44058145 -138.3125 218.375 C-142.42431542 222.55072965 -146.83343178 226.19526323 -151.41015625 229.84765625 C-154.3770578 232.31336176 -157.03933551 234.95928352 -159.66015625 237.78515625 C-161 239 -161 239 -163 239 C-163 239.66 -163 240.32 -163 241 C-164.57286684 242.41438406 -166.21139996 243.75604401 -167.875 245.0625 C-171.68835562 248.11025865 -175.39808809 251.20500341 -179 254.5 C-183.21342249 258.33580443 -187.56481426 261.95092745 -191.99609375 265.53125 C-196.08245969 268.88961576 -200.07664361 272.35220696 -204.05371094 275.83911133 C-207.54464074 278.86812534 -211.14282186 281.44046854 -215 284 C-216.98037284 285.64041783 -218.93753407 287.30912064 -220.875 289 C-226.37585961 293.73734094 -232.07525449 298.12823971 -237.91113281 302.44287109 C-242.57223313 305.89912937 -247.11948004 309.46881399 -251.625 313.125 C-256.90337818 317.39866334 -262.29638398 321.43365561 -267.85180664 325.33886719 C-274.9007346 330.30513453 -281.82356851 335.50064649 -288.43359375 341.0390625 C-290.87906184 342.90759367 -293.3942743 344.37572802 -296.08105469 345.86572266 C-299.77226695 348.04757662 -303.17483765 350.64810631 -306.625 353.1875 C-308.22583257 354.35516803 -309.82739918 355.52183037 -311.4296875 356.6875 C-312.59902832 357.53828125 -312.59902832 357.53828125 -313.79199219 358.40625 C-317.75929514 361.26986717 -321.79451417 364.0315129 -325.828125 366.80078125 C-330.00388406 369.69604277 -334.13040095 372.65813465 -338.24511719 375.6394043 C-341.41693909 377.92410435 -344.63545521 380.01357276 -348 382 C-349.86129232 383.21834955 -351.71501992 384.44830588 -353.5625 385.6875 C-354.62726563 386.40035156 -355.69203125 387.11320312 -356.7890625 387.84765625 C-357.84867188 388.55792969 -358.90828125 389.26820313 -360 390 C-362.80496986 391.87132715 -365.61124559 393.74067859 -368.41796875 395.609375 C-371.23736652 397.48842505 -374.05063123 399.37649143 -376.86328125 401.265625 C-385.60483483 407.12763637 -394.36670026 412.92382399 -403.32324219 418.45263672 C-408.41428312 421.60441855 -413.39146383 424.90584547 -418.35693359 428.25097656 C-423.50429099 431.70414735 -428.74635458 434.9874886 -434.01733398 438.24780273 C-438.59848752 441.0928699 -443.09452193 444.04334327 -447.5625 447.0625 C-453.06364639 450.77606213 -458.66990183 454.24140211 -464.38623047 457.61230469 C-468.75525622 460.20630753 -472.98558384 462.95698242 -477.1875 465.8125 C-483.89427236 470.36483474 -490.80383227 474.5252484 -497.77441406 478.65917969 C-503.50402344 482.06855236 -509.08775957 485.61091046 -514.58984375 489.37890625 C-517.01543807 491.01038379 -519.48190265 492.51564788 -522 494 C-531.16703844 499.43787796 -540.24082136 504.99506584 -549.21337891 510.74975586 C-553.66749533 513.59048385 -558.17799536 516.24358251 -562.81152344 518.78027344 C-566.33706356 520.74519963 -569.75720365 522.87453972 -573.1875 525 C-580.2230933 529.33305587 -587.3135921 533.56387329 -594.4375 537.75 C-600.86859769 541.53001837 -607.26307224 545.32461505 -613.48828125 549.4375 C-615.68573401 550.80450016 -617.90151063 552.06532743 -620.16796875 553.3125 C-625.19125482 556.08025345 -630.09594989 559.02739116 -635 562 C-640.52141299 565.34682572 -646.06549725 568.61072169 -651.72265625 571.72265625 C-655.87311448 574.05061481 -659.93089016 576.53349342 -664 579 C-669.50690692 582.33803281 -675.03530416 585.596611 -680.67773438 588.70019531 C-685.08763875 591.16848073 -689.41044345 593.78573505 -693.75 596.375 C-700.73403391 600.5256309 -707.73986095 604.54158154 -714.9296875 608.32421875 C-718.5434093 610.29659362 -722.04891427 612.41847491 -725.5625 614.5625 C-730.8482953 617.78404397 -736.19767328 620.64213573 -741.7734375 623.33984375 C-745.78188942 625.40230388 -749.63180647 627.68777549 -753.5 630 C-759.3201867 633.47897652 -765.18399175 636.67227134 -771.2890625 639.6328125 C-775.67388579 641.84417871 -779.81890299 644.43036746 -784 647 C-790.12284834 650.65935858 -790.12284834 650.65935858 -793.4140625 651.9375 C-796.00118179 653.00048557 -798.19811131 654.26175534 -800.5625 655.75 C-804.29596075 658.03556587 -808.06765592 660.07684588 -812 662 C-815.73978449 663.83182828 -819.33296172 665.74840421 -822.875 667.9375 C-826.9867827 670.46216136 -831.19261793 672.70811974 -835.5 674.875 C-836.41821533 675.34087524 -836.41821533 675.34087524 -837.35498047 675.81616211 C-841.75229273 678 -841.75229273 678 -844 678 C-842.68754105 674.06262316 -840.31341672 673.00250939 -836.9375 670.9375 C-836.32060303 670.55045898 -835.70370605 670.16341797 -835.06811523 669.76464844 C-833.05057795 668.50125755 -831.02579073 667.2501074 -829 666 C-826.87779944 664.68231617 -824.75684144 663.36267595 -822.63696289 662.04125977 C-821.29176708 661.20393593 -819.94470491 660.36960017 -818.59545898 659.53881836 C-815.51008426 657.62761881 -812.51198098 655.66922082 -809.58984375 653.515625 C-806.31476162 651.13584263 -802.87005168 649.23247403 -799.31591797 647.30371094 C-795.42906176 645.11566411 -791.7556659 642.62191782 -788.0625 640.125 C-786.88409546 639.3350061 -786.88409546 639.3350061 -785.68188477 638.52905273 C-781.56176561 635.75916388 -777.47974691 632.94529364 -773.4375 630.0625 C-769.74180783 627.43459432 -765.93984986 625.21763586 -761.91015625 623.140625 C-759.93604882 621.96181238 -758.58483471 620.65161145 -757 619 C-755.34928604 617.97388051 -753.68029994 616.97691857 -752 616 C-749.9995648 614.66731969 -747.99962883 613.33388992 -746 612 C-743.83482669 610.62264965 -741.66807583 609.24777698 -739.5 607.875 C-733.87448337 604.28917517 -728.43290003 600.49894599 -723.03222656 596.5847168 C-719.67215562 594.16045096 -716.27625854 591.86785833 -712.75 589.6875 C-707.81408845 586.60887874 -703.1321392 583.24162342 -698.4375 579.8125 C-692.38361214 575.39128508 -686.26339947 571.11901847 -680 567 C-673.06963586 562.43806952 -666.31554418 557.67801373 -659.61376953 552.78735352 C-654.75753951 549.24924307 -649.84633969 545.81158532 -644.875 542.4375 C-638.61056049 538.18064378 -632.5411387 533.7052724 -626.50732422 529.12866211 C-623.22989456 526.64928941 -619.95235232 524.23387503 -616.5 522 C-611.68730021 518.87628542 -607.14848564 515.40650015 -602.57299805 511.94970703 C-597.18496809 507.88024308 -591.75671505 503.86890964 -586.3125 499.875 C-579.88599354 495.15398209 -573.52580117 490.36520685 -567.22265625 485.48046875 C-563.59482956 482.67637876 -559.92277116 479.9323009 -556.25 477.1875 C-548.44574533 471.35127477 -540.69925649 465.44189408 -532.96923828 459.5078125 C-531.14906428 458.11413601 -529.323811 456.72751069 -527.49609375 455.34375 C-521.41227824 450.7242727 -515.52224183 445.93954604 -509.73120117 440.9621582 C-506.44588853 438.15970274 -503.09164787 435.55822243 -499.5625 433.0625 C-494.4357727 429.42732056 -489.72924273 425.41310261 -484.99389648 421.29248047 C-481.35995356 418.13799866 -477.66055698 415.17024256 -473.76953125 412.3359375 C-471.1667682 410.37093758 -468.75749478 408.20776007 -466.3203125 406.04296875 C-459.55384002 400.08528339 -452.62769721 394.30229848 -445.625 388.625 C-441.116241 384.95461932 -436.70286611 381.18525118 -432.3125 377.375 C-431.34848267 376.53859985 -431.34848267 376.53859985 -430.36499023 375.68530273 C-426.34530564 372.18945034 -422.35480039 368.66342729 -418.41796875 365.07421875 C-417 364 -417 364 -415 364 C-415 363.34 -415 362.68 -415 362 C-413.33984375 360.546875 -413.33984375 360.546875 -410.9375 358.75 C-406.23001749 355.08936559 -401.8873227 351.16595841 -397.5625 347.0625 C-393.24454696 342.97132453 -388.90953001 339.01879283 -384.25 335.3125 C-379.33849022 331.39350928 -374.97516131 327.06858348 -370.58203125 322.59375 C-361.54395192 313.51465064 -361.54395192 313.51465064 -357 312 C-356.31445052 310.67627641 -355.64999839 309.34153804 -355 308 C-353.3359375 306.32421875 -353.3359375 306.32421875 -351.375 304.6875 C-350.30958984 303.78451172 -350.30958984 303.78451172 -349.22265625 302.86328125 C-348.12244141 301.94095703 -348.12244141 301.94095703 -347 301 C-342.50928321 297.13551161 -338.14127484 293.24228154 -334 289 C-329.06829787 283.97309126 -324.0810317 279.14428449 -318.72265625 274.57421875 C-316.54675637 272.58581138 -314.82042464 270.31053896 -313 268 C-312.34 268 -311.68 268 -311 268 C-311 267.34 -311 266.68 -311 266 C-310.34 266 -309.68 266 -309 266 C-309 265.34 -309 264.68 -309 264 C-307.62229919 262.6410675 -307.62229919 262.6410675 -305.66186523 261.02856445 C-300.3060616 256.47045089 -295.37415978 251.51897207 -290.41015625 246.54296875 C-289.41522022 245.54870788 -288.42013591 244.55459537 -287.4249115 243.56062317 C-285.35676268 241.4939372 -283.29040484 239.42548207 -281.2253418 237.35571289 C-278.57683484 234.70146436 -275.9238022 232.05179165 -273.26944828 229.40339184 C-271.22165919 227.35920851 -269.176248 225.31265928 -267.13155937 223.26537514 C-266.15346109 222.28660995 -265.1746199 221.30858659 -264.19502449 220.33131981 C-262.83341106 218.97223795 -261.47533188 217.609618 -260.11743164 216.24682617 C-259.34436172 215.47296066 -258.57129181 214.69909515 -257.77479553 213.90177917 C-255.93961823 212.1153137 -255.93961823 212.1153137 -255 210 C-254.34 210 -253.68 210 -253 210 C-252.67 209.01 -252.34 208.02 -252 207 C-251.34 207 -250.68 207 -250 207 C-249.75894531 206.43023437 -249.51789062 205.86046875 -249.26953125 205.2734375 C-247.75271334 202.55716666 -245.93237093 200.77554863 -243.6875 198.625 C-241.08423516 196.08827228 -238.57103313 193.59899931 -236.3125 190.75 C-234.24564601 188.29211958 -232.11741043 186.41687153 -229.6171875 184.421875 C-225.52113108 180.82051139 -222.01751537 176.52627305 -219 172 C-218.34 172 -217.68 172 -217 172 C-216.73832031 171.42121094 -216.47664062 170.84242188 -216.20703125 170.24609375 C-214.92707261 167.86429369 -213.48643946 166.07683354 -211.6875 164.0625 C-210.75164062 163.01449219 -210.75164062 163.01449219 -209.796875 161.9453125 C-207.59650308 159.56317072 -205.29289619 157.29289619 -203 155 C-201.42395411 153.13383621 -199.86730606 151.25532069 -198.33203125 149.35546875 C-197.89246094 148.90816406 -197.45289063 148.46085938 -197 148 C-196.34 148 -195.68 148 -195 148 C-194.731875 147.4225 -194.46375 146.845 -194.1875 146.25 C-192.97070811 143.94449957 -191.69666121 141.97943808 -190 140 C-189.34 140 -188.68 140 -188 140 C-187.731875 139.4225 -187.46375 138.845 -187.1875 138.25 C-185.97070811 135.94449957 -184.69666121 133.97943808 -183 132 C-182.34 132 -181.68 132 -181 132 C-180.7421875 131.42765625 -180.484375 130.8553125 -180.21875 130.265625 C-178.88634058 127.78871005 -177.34943882 125.8658834 -175.5 123.75 C-174.8915625 123.04359375 -174.283125 122.3371875 -173.65625 121.609375 C-172 120 -172 120 -170 120 C-169.74476563 119.44828125 -169.48953125 118.8965625 -169.2265625 118.328125 C-167.80697926 115.63362942 -166.13867746 113.23221272 -164.375 110.75 C-163.74335937 109.85796875 -163.11171875 108.9659375 -162.4609375 108.046875 C-161.97882812 107.37140625 -161.49671875 106.6959375 -161 106 C-161.51304687 105.86464844 -162.02609375 105.72929687 -162.5546875 105.58984375 C-175.41386567 101.97455292 -187.79194941 96.59355852 -200.07836914 91.39746094 C-204.2250967 89.66116428 -208.40349972 88.16628295 -212.67700195 86.77246094 C-216.67347794 85.44352242 -220.6148255 83.96637058 -224.5625 82.5 C-225.76036133 82.05720703 -225.76036133 82.05720703 -226.98242188 81.60546875 C-231.99366561 79.75126773 -236.9981156 77.87928761 -242 76 C-241.67 75.01 -241.34 74.02 -241 73 C-238.67282332 72.01507877 -236.46996964 71.22669483 -234.0625 70.5 C-233.43537109 70.30019531 -232.80824219 70.10039063 -232.16210938 69.89453125 C-230.11281087 69.24651541 -228.05757351 68.62122404 -226 68 C-225.22148682 67.7628125 -224.44297363 67.525625 -223.64086914 67.28125 C-219.33109156 65.97620942 -215.01241592 64.71291179 -210.67578125 63.5 C-209.79212891 63.2525 -208.90847656 63.005 -207.99804688 62.75 C-206.19680884 62.24696334 -204.39471033 61.7469984 -202.59179688 61.25 C-197.52096268 59.82347961 -192.81004082 58.13982804 -188 56 C-186.11326403 55.51205104 -184.22536887 55.02737666 -182.328125 54.58203125 C-173.22088511 52.30522128 -164.31979347 49.14686723 -155.44384766 46.10644531 C-150.67006217 44.48919062 -145.89591377 43.19619082 -141 42 C-140.175 41.67 -139.35 41.34 -138.5 41 C-135.67424973 39.86969989 -132.85745348 39.2043837 -129.90234375 38.5 C-127.87860902 38.01280682 -127.87860902 38.01280682 -125.5625 37 C-123.27891485 36.10884482 -121.24591238 35.59720989 -118.85546875 35.109375 C-114.3561653 34.13010687 -110.09021811 32.77246402 -105.75 31.25 C-99.05226163 28.95524745 -92.31931871 26.90195698 -85.5 25 C-77.92988289 22.88708505 -70.46150375 20.57819368 -63.03515625 18.00390625 C-58.39925868 16.40866393 -53.76278279 15.16389547 -49 14 C-48.175 13.67 -47.35 13.34 -46.5 13 C-43.7693335 11.9077334 -41.00962919 11.2531534 -38.15820312 10.55322266 C-34.89990678 9.71800778 -31.70574568 8.70419827 -28.5 7.6875 C-27.82291992 7.47456299 -27.14583984 7.26162598 -26.44824219 7.04223633 C-22.80961207 5.89709859 -19.17668974 4.7352584 -15.546875 3.5625 C-14.46696289 3.21699097 -14.46696289 3.21699097 -13.36523438 2.86450195 C-11.98473862 2.42266046 -10.60574376 1.9760937 -9.22851562 1.52416992 C-5.934079 0.47328527 -3.50809402 0 0 0 Z " fill="#45BEE1" transform="translate(897,29)"/>
<path d="M0 0 C10.2139303 -0.11001792 20.4206868 -0.08092528 30.63482666 0.02606201 C32.01421802 0.03396109 33.39361282 0.04127867 34.77301025 0.04803467 C38.83197356 0.07089402 42.88896945 0.13955401 46.94732666 0.21356201 C48.15082764 0.21920166 49.35432861 0.22484131 50.59429932 0.23065186 C61.9227735 0.51948885 72.32359824 4.10890045 80.63482666 12.02606201 C85.41564764 17.21171058 88.71990764 22.24671717 90.63482666 29.02606201 C90.90401303 29.9679955 90.90401303 29.9679955 91.1786375 30.92895794 C93.34387902 39.95605001 92.92302591 49.18557801 92.90948486 58.40618896 C92.91383731 60.3668436 92.91902222 62.32749654 92.92497253 64.28814697 C92.93831723 69.59199683 92.9389462 74.89577524 92.93640924 80.19963861 C92.93533634 84.63771705 92.94023109 89.07578122 92.94501466 93.51385659 C92.95609442 103.99018536 92.95655602 114.46647827 92.95050049 124.94281006 C92.94446287 135.7264298 92.95676991 146.50991899 92.97807056 157.29351646 C92.99572297 166.57368304 93.00168214 175.8538082 92.99843282 185.13399094 C92.99662545 190.6669779 92.99920133 196.19987174 93.01314735 201.7328434 C93.02578022 206.93926601 93.02373018 212.1454861 93.01073647 217.35190582 C93.0083829 219.25410978 93.0110612 221.15632824 93.01935959 223.05851555 C93.08221947 238.59747046 92.56307038 253.84397414 81.32232666 265.77606201 C72.03566396 274.42226522 61.85761185 277.49283381 49.31085205 277.43011475 C47.84286919 277.44040962 47.84286919 277.44040962 46.3452301 277.45091248 C43.14082944 277.4690711 39.9369235 277.46535869 36.73248291 277.45965576 C34.48626041 277.46422266 32.2400393 277.46952974 29.99382019 277.47554016 C25.29768173 277.48444972 20.60171354 277.48207248 15.90557861 277.47210693 C9.90936227 277.46061779 3.91373489 277.48083953 -2.08240414 277.51002407 C-6.71775499 277.52843353 -11.35296592 277.52808416 -15.98834419 277.52238655 C-18.19817494 277.52223393 -20.40801552 277.52822882 -22.6178112 277.54067802 C-38.33069175 277.61674128 -50.63505252 277.00658353 -62.86517334 266.02606201 C-71.72011832 256.87660667 -74.69236271 244.69967414 -74.61914062 232.34236145 C-74.62226061 231.51684971 -74.62538059 230.69133797 -74.62859511 229.84081072 C-74.63651274 227.10048452 -74.63027598 224.36038363 -74.6239624 221.62005615 C-74.62667506 219.64483003 -74.63023753 217.66960492 -74.63458252 215.69438171 C-74.6436767 210.34728095 -74.64017436 205.00025763 -74.63382435 199.65315557 C-74.62874826 194.04710388 -74.63346034 188.44105867 -74.63659668 182.83500671 C-74.64023193 173.42089655 -74.63544909 164.0068178 -74.62591553 154.5927124 C-74.615035 143.72330553 -74.61855543 132.85397371 -74.62956834 121.98456866 C-74.63865753 112.63822955 -74.63991841 103.29191298 -74.634691 93.94557089 C-74.63157987 88.36965196 -74.6311383 82.79376827 -74.63776398 77.21785164 C-74.64356044 71.97372886 -74.63949851 66.72970241 -74.62797546 61.48558998 C-74.62534103 59.56600352 -74.62607307 57.64640888 -74.63050079 55.72682571 C-74.66449794 39.48467535 -73.89329435 24.18255314 -62.12298584 11.54949951 C-54.07014185 4.57036805 -44.58570629 0.60734662 -33.99407959 0.51434326 C-32.81396049 0.4872805 -32.81396049 0.4872805 -31.61000061 0.45967102 C-29.04926975 0.40499466 -26.48877338 0.37111509 -23.92767334 0.33856201 C-22.13029542 0.30632774 -20.33293198 0.27327688 -18.5355835 0.23944092 C-12.3573088 0.13048321 -6.17881611 0.06808481 0 0 Z " fill="#1997D1" transform="translate(87.36517333984375,790.9739379882813)"/>
<path d="M0 0 C2.17513694 -0.0045685 4.35027244 -0.00987605 6.52540588 -0.0158844 C11.07013842 -0.02478728 15.61469497 -0.02242438 20.15942383 -0.01245117 C25.95710297 -0.00096236 31.75417293 -0.02118662 37.55177212 -0.05036831 C42.03961486 -0.06879352 46.52731329 -0.0684253 51.0151844 -0.06273079 C53.15162066 -0.06257836 55.28806719 -0.06855688 57.42446709 -0.08102226 C72.23373303 -0.15527441 85.91100577 0.23268831 97.69140625 10.43359375 C109.21655332 22.12309229 110.95362031 35.3917686 111.26123047 51.17358398 C111.29798344 52.63736041 111.3526517 54.10079765 111.42529297 55.56323242 C112.0174452 67.70781082 112.0174452 67.70781082 108.81494141 71.87573242 C106.52353183 73.67056711 104.26112467 75.07517285 101.69140625 76.43359375 C100.80710938 77.07167969 99.9228125 77.70976563 99.01171875 78.3671875 C97.92503906 79.11162109 97.92503906 79.11162109 96.81640625 79.87109375 C88.64708399 85.53650609 80.65375912 91.3459015 72.98046875 97.671875 C70.6423038 99.4713842 68.24286751 100.95643197 65.69140625 102.43359375 C59.8503214 106.18857687 54.29384301 110.33461465 48.69140625 114.43359375 C46.85852018 115.76754186 45.02519326 117.10088445 43.19140625 118.43359375 C41.83015625 119.42359375 41.83015625 119.42359375 40.44140625 120.43359375 C32.19140625 126.43359375 32.19140625 126.43359375 29.421875 128.4453125 C27.65046353 129.73522443 25.88204204 131.02925633 24.1171875 132.328125 C18.02857231 136.7967499 11.83902937 141.09697302 5.60595703 145.35986328 C-1.03317385 149.90974612 -7.52730173 154.64420587 -14.00390625 159.421875 C-19.74596265 163.63435227 -25.58845648 167.63887957 -31.53125 171.5625 C-34.53435839 173.58569117 -37.41935308 175.72212393 -40.296875 177.91796875 C-42.70977096 179.73583988 -45.1577358 181.49721624 -47.62109375 183.24609375 C-48.44222656 183.83003906 -49.26335938 184.41398438 -50.109375 185.015625 C-52.30859375 186.43359375 -52.30859375 186.43359375 -55.30859375 187.43359375 C-57.09488051 185.64730699 -56.45039157 183.00023296 -56.4624939 180.58561707 C-56.47109436 179.31421875 -56.47969482 178.04282043 -56.48855591 176.7328949 C-56.49299174 175.31045573 -56.49729004 173.88801613 -56.50146484 172.46557617 C-56.50936301 170.97752692 -56.51763178 169.48947961 -56.52624512 168.00143433 C-56.55252153 163.09732912 -56.56778886 158.1932152 -56.58203125 153.2890625 C-56.58739062 151.60008552 -56.59276813 149.9111086 -56.5981636 148.22213173 C-56.61980997 141.19044199 -56.63854188 134.15875457 -56.649786 127.12703991 C-56.66598871 117.06044404 -56.69905626 106.99423649 -56.75618684 96.92778701 C-56.79499697 89.8465339 -56.81443235 82.76538411 -56.81970656 75.68402749 C-56.82334795 71.45809704 -56.8352371 67.23258021 -56.8678093 63.00676537 C-56.89808153 59.02165843 -56.90413445 55.03721106 -56.89242554 51.0520134 C-56.89220632 49.59766355 -56.90038432 48.14328144 -56.91807938 46.68903923 C-57.07398893 33.12504614 -53.44264358 21.68785724 -44.30859375 11.43359375 C-31.13406283 -0.61227798 -16.87776377 -0.03110841 0 0 Z " fill="#1A96D2" transform="translate(69.30859375,532.56640625)"/>
<path d="M0 0 C1.24012848 -0.01073296 1.24012848 -0.01073296 2.50531006 -0.02168274 C3.4091745 -0.02437164 4.31303894 -0.02706055 5.24429321 -0.02983093 C6.19920654 -0.03640213 7.15411987 -0.04297333 8.13796997 -0.04974365 C11.30573608 -0.06948842 14.47345459 -0.08114624 17.64126587 -0.09111023 C18.72554493 -0.09518576 19.80982399 -0.09926128 20.92695999 -0.10346031 C26.67368632 -0.12433303 32.42038873 -0.13862562 38.16714478 -0.147995 C44.07923932 -0.15901974 49.99095335 -0.19337077 55.90291405 -0.23316669 C60.46712906 -0.25943365 65.03125516 -0.26769611 69.59553909 -0.27127647 C71.77303237 -0.2761219 73.95052223 -0.28767691 76.12794113 -0.30631447 C105.72662981 -0.54377245 105.72662981 -0.54377245 116.93032837 10.14717102 C122.03349182 15.20275253 126.25528008 20.87564697 127.39517212 28.08857727 C126.8520699 31.66209857 125.72866164 32.71387081 122.86782837 34.82295227 C122.29032837 35.21869446 121.71282837 35.61443665 121.11782837 36.02217102 C120.52614868 36.45142883 119.93446899 36.88068665 119.32485962 37.32295227 C117.538311 38.61494129 115.7355846 39.88151566 113.93032837 41.14717102 C112.09504277 42.47781585 110.26155397 43.81094436 108.43032837 45.14717102 C107.53700806 45.79170227 106.64368774 46.43623352 105.72329712 47.10029602 C102.14131629 49.72541204 98.62927454 52.43698913 95.11782837 55.15498352 C90.75324811 58.52807833 86.34879199 61.84505631 81.93032837 65.14717102 C76.90367937 68.90497469 71.89896453 72.68795002 66.93032837 76.52217102 C60.64348189 81.37215826 54.31033963 86.14113625 47.89541626 90.820755 C41.74244231 95.31251284 35.65217628 99.8721365 29.61782837 104.52217102 C22.87581979 109.71507759 16.02107118 114.73025841 9.10562134 119.68916321 C4.7433293 122.82189936 0.45623881 126.01790247 -3.75326538 129.35420227 C-7.52544752 132.27398574 -11.39389738 135.06277409 -15.25497437 137.86347961 C-18.49295677 140.22156221 -21.68809482 142.61385553 -24.81967163 145.11201477 C-25.40973999 145.58018616 -25.99980835 146.04835754 -26.60775757 146.53071594 C-27.72744405 147.42445314 -28.84042402 148.32667445 -29.94564819 149.23823547 C-31.46029663 150.44404602 -31.46029663 150.44404602 -34.06967163 152.14717102 C-35.05967163 151.81717102 -36.04967163 151.48717102 -37.06967163 151.14717102 C-37.13994565 136.21266629 -37.19274951 121.27817444 -37.22510815 106.34353924 C-37.24053633 99.40815368 -37.26154772 92.47287123 -37.29598999 85.53755188 C-37.32923709 78.83966473 -37.34654503 72.14190661 -37.35430336 65.44393349 C-37.35982957 62.89358145 -37.37062079 60.343235 -37.3868618 57.7929287 C-37.40876353 54.20995494 -37.41163317 50.62741816 -37.4102478 47.04438782 C-37.42103363 45.99925018 -37.43181946 44.95411255 -37.44293213 43.87730408 C-37.38904014 30.92486769 -33.64341381 20.53953015 -24.99935913 10.81904602 C-19.64536794 5.63776423 -14.16384536 3.20564438 -7.06967163 1.14717102 C-4.36299761 0.24494635 -2.78060487 0.01655492 0 0 Z " fill="#30A1C8" transform="translate(258.0696716308594,421.8528289794922)"/>
<path d="M0 0 C0.66 0.33 1.32 0.66 2 1 C1.02433888 2.16959987 0.044375 3.33561177 -0.9375 4.5 C-1.48277344 5.1496875 -2.02804687 5.799375 -2.58984375 6.46875 C-3.28787109 7.22671875 -3.28787109 7.22671875 -4 8 C-4.33 8 -4.66 8 -5 8 C-5.33 217.55 -5.66 427.1 -6 643 C-6.33 643 -6.66 643 -7 643 C-7.42769947 559.75120761 -7.78183178 476.50184452 -8.17830308 202.69693365 C-8.18366291 186.84868104 -8.19441936 171.00043869 -8.20800781 155.15219116 C-8.22352132 136.96431175 -8.23152801 118.77644591 -8.22964984 100.58855963 C-8.22882879 91.19036552 -8.23105679 81.79219724 -8.24188805 72.39400864 C-8.25091555 64.53927359 -8.25324166 56.68457427 -8.24646579 48.82983625 C-8.24323228 44.85555386 -8.24320119 40.88134057 -8.25187778 36.9070648 C-8.25970774 33.28521535 -8.25834687 29.66349125 -8.24958704 26.04164501 C-8.24731749 24.11709581 -8.2548926 22.19254278 -8.26282424 20.26800859 C-8.2582256 19.12464717 -8.25362696 17.98128575 -8.24888897 16.80327702 C-8.24921502 15.32840103 -8.24921502 15.32840103 -8.24954766 13.82372957 C-7.90355106 9.90864242 -7.16144508 6.29383778 -4.4921875 3.3203125 C-2.99479167 2.21354167 -1.49739583 1.10677083 0 0 Z " fill="#C9E5CF" transform="translate(639,381)"/>
<path d="M0 0 C2.13378906 0.39672852 2.13378906 0.39672852 4 1 C4.01737589 48.11288365 4.03325467 95.22576754 4.04234314 142.33865356 C4.04255023 143.40928019 4.04255023 143.40928019 4.04276149 144.50153564 C4.04576449 160.06728823 4.04853317 175.63304085 4.05106533 191.19879352 C4.0523111 198.84818657 4.05360787 206.49757962 4.05493164 214.14697266 C4.0550624 214.90759559 4.05519316 215.66821853 4.05532788 216.45189064 C4.05922679 239.00411394 4.06581459 261.55633499 4.07458849 284.1085569 C4.08817673 319.1531538 4.09694336 354.19774935 4.09761363 389.24234904 C4.09764204 390.70061474 4.09767586 392.15888043 4.09771509 393.61714612 C4.09963965 466.14252495 4.01841535 538.66697789 3 773 C2.67 773 2.34 773 2 773 C2 518.57 2 264.14 2 2 C-0.64 4.31 -3.28 6.62 -6 9 C-6.66 8.67 -7.32 8.34 -8 8 C-6.76600937 6.63122884 -5.51219377 5.28030834 -4.25 3.9375 C-3.55390625 3.18339844 -2.8578125 2.42929688 -2.140625 1.65234375 C-1.43421875 1.10707031 -0.7278125 0.56179687 0 0 Z " fill="#92C44A" transform="translate(796,253)"/>
<path d="M0 0 C1.32 0.33 2.64 0.66 4 1 C3.67 64.69 3.34 128.38 3 194 C2.67 194 2.34 194 2 194 C2 130.64 2 67.28 2 2 C-0.64 4.31 -3.28 6.62 -6 9 C-6.66 8.67 -7.32 8.34 -8 8 C-6.76600937 6.63122884 -5.51219377 5.28030834 -4.25 3.9375 C-3.55390625 3.18339844 -2.8578125 2.42929688 -2.140625 1.65234375 C-1.43421875 1.10707031 -0.7278125 0.56179687 0 0 Z " fill="#90C246" transform="translate(796,253)"/>
<path d="M0 0 C0 0.66 0 1.32 0 2 C-2.89166966 3.44583483 -5.38639502 3.12266289 -8.61843872 3.12025452 C-9.30618437 3.12110894 -9.99393001 3.12196337 -10.70251644 3.12284368 C-13.01801232 3.12449705 -15.33343652 3.11897945 -17.64892578 3.11352539 C-19.30437213 3.11324346 -20.95981861 3.11340136 -22.61526489 3.1139679 C-27.11914593 3.11425565 -31.62300052 3.10836248 -36.1268754 3.10139394 C-40.83009616 3.09515673 -45.53331749 3.09455631 -50.23654175 3.09336853 C-59.14713839 3.0902563 -68.0577228 3.08204436 -76.96831405 3.07201904 C-87.1108502 3.06085455 -97.25338691 3.0553466 -107.39592767 3.05032361 C-128.26395861 3.03986167 -149.13197854 3.02226431 -170 3 C-170 2.67 -170 2.34 -170 2 C-153.01215972 1.86830309 -136.02431028 1.73786439 -119.03644943 1.60884857 C-111.14538882 1.54889113 -103.25433152 1.48855037 -95.36328125 1.42724609 C-88.47049149 1.37369818 -81.57769623 1.32093165 -74.68489385 1.26903296 C-71.04882319 1.24163008 -67.41275602 1.21388409 -63.77669525 1.18519592 C-60.34410407 1.15814484 -56.91150748 1.13196295 -53.47890329 1.10661602 C-51.50420679 1.09198005 -49.52951386 1.07686541 -47.55482101 1.06174469 C-41.02174356 1.01644635 -34.48978924 0.99658581 -27.95666504 1.02172852 C-26.6697237 1.02579964 -25.38278236 1.02987076 -24.0568428 1.03406525 C-21.6255635 1.04364359 -19.19429599 1.05759732 -16.76307297 1.07671356 C-15.14123533 1.08327343 -15.14123533 1.08327343 -13.4866333 1.08996582 C-12.54374073 1.09659492 -11.60084816 1.10322403 -10.62938309 1.11005402 C-7.00226677 0.95823943 -3.63499238 0 0 0 Z " fill="#66B19B" transform="translate(565,1065)"/>
<path d="M0 0 C0.66 0.33 1.32 0.66 2 1 C2.625 3.5625 2.625 3.5625 3 6 C-3.65005281 10.18309774 -10.47641716 13.80147077 -17.52734375 17.26171875 C-20.73559913 18.86765086 -23.86908466 20.56174326 -27 22.3125 C-30.59033312 24.30123696 -34.01411335 25.92273334 -38 27 C-36.68754105 23.06262316 -34.31341672 22.00250939 -30.9375 19.9375 C-30.32060303 19.55045898 -29.70370605 19.16341797 -29.06811523 18.76464844 C-27.05057795 17.50125755 -25.02579073 16.2501074 -23 15 C-20.87779944 13.68231617 -18.75684144 12.36267595 -16.63696289 11.04125977 C-15.29176708 10.20393593 -13.94470491 9.36960017 -12.59545898 8.53881836 C-8.26572245 5.85681334 -4.11840341 2.99713487 0 0 Z " fill="#55B2DE" transform="translate(91,680)"/>
<path d="M0 0 C0.66 0.33 1.32 0.66 2 1 C-0.33333333 3.33333333 -2.66666667 5.66666667 -5 8 C-5.21754174 10.70874625 -5.31141101 13.31832271 -5.31884766 16.02978516 C-5.33391609 17.27380348 -5.33391609 17.27380348 -5.34928894 18.54295349 C-5.38024662 21.29164926 -5.39719084 24.0402471 -5.4140625 26.7890625 C-5.43276404 28.6919337 -5.45233668 30.59479652 -5.4727478 32.49765015 C-5.52418217 37.51174998 -5.56374724 42.52587674 -5.60089111 47.5401001 C-5.64086007 52.65440593 -5.69198474 57.76859869 -5.7421875 62.8828125 C-5.83908055 72.9217957 -5.92344236 82.96084258 -6 93 C-6.33 93 -6.66 93 -7 93 C-7.16218727 81.61279341 -7.28656773 70.22586151 -7.3626852 58.83773518 C-7.39921824 53.54969299 -7.44877002 48.26244092 -7.52807617 42.97485352 C-7.60413327 37.87195767 -7.64598975 32.76982171 -7.6641407 27.66640282 C-7.67707537 25.71944399 -7.70233479 23.77252679 -7.7401104 21.82589149 C-7.79093659 19.0982644 -7.79792384 16.37377637 -7.79467773 13.64575195 C-7.81984467 12.84086334 -7.8450116 12.03597473 -7.87094116 11.20669556 C-7.80154999 5.81760476 -7.80154999 5.81760476 -5.38820076 3.35591698 C-3.45033264 1.9596405 -3.45033264 1.9596405 0 0 Z " fill="#68B4A7" transform="translate(431,520)"/>
<path d="M0 0 C1.32 0.33 2.64 0.66 4 1 C3.67 15.19 3.34 29.38 3 44 C2.67 44 2.34 44 2 44 C2 30.14 2 16.28 2 2 C-0.64 4.31 -3.28 6.62 -6 9 C-6.66 8.67 -7.32 8.34 -8 8 C-6.76600937 6.63122884 -5.51219377 5.28030834 -4.25 3.9375 C-3.55390625 3.18339844 -2.8578125 2.42929688 -2.140625 1.65234375 C-1.43421875 1.10707031 -0.7278125 0.56179687 0 0 Z " fill="#91C349" transform="translate(796,253)"/>
<path d="M0 0 C0.66 0.33 1.32 0.66 2 1 C1.52949219 1.53109375 1.05898438 2.0621875 0.57421875 2.609375 C-0.04839844 3.31578125 -0.67101562 4.0221875 -1.3125 4.75 C-1.92738281 5.44609375 -2.54226563 6.1421875 -3.17578125 6.859375 C-5.02916165 8.96978683 -5.02916165 8.96978683 -6.60546875 11.265625 C-7.06566406 11.83796875 -7.52585937 12.4103125 -8 13 C-8.66 13 -9.32 13 -10 13 C-10.66 18.94 -11.32 24.88 -12 31 C-12.33 31 -12.66 31 -13 31 C-13.46732202 22.71801523 -13.63587467 15.16674588 -9 8 C-6.20159912 5.04747033 -3.22878999 2.46988636 0 0 Z " fill="#A2D3D8" transform="translate(374,721)"/>
<path d="M0 0 C0.66 0.33 1.32 0.66 2 1 C2 1.33 2 1.66 2 2 C2.66 2.33 3.32 2.66 4 3 C-7.52164009 9.51936219 -7.52164009 9.51936219 -13 11 C-11.6390377 6.91711311 -9.52046678 6.11314183 -5.9375 3.8125 C-4.83277344 3.09707031 -3.72804688 2.38164063 -2.58984375 1.64453125 C-1.73519531 1.10183594 -0.88054687 0.55914063 0 0 Z " fill="#9FD4EC" transform="translate(66,696)"/>
<path d="M0 0 C-2.87420494 2.60474823 -5.42087898 4.26797495 -9.0625 5.5 C-11.87236672 6.45587989 -12.96308209 6.96308209 -15.125 9.125 C-17.59263708 11.59263708 -19.59679053 11.69061732 -23 12 C-20.09082515 8.82260335 -17.2519748 6.85748894 -13.4375 4.875 C-3.74320894 -0.20233562 -3.74320894 -0.20233562 0 0 Z " fill="#9DD3DD" transform="translate(344,576)"/>
<path d="M0 0 C0.66 0.33 1.32 0.66 2 1 C2.33 2.65 2.66 4.3 3 6 C-1.95 8.475 -1.95 8.475 -7 11 C-5.91829788 5.5914894 -4.93053096 4.53747787 -1 1 C-0.67 0.67 -0.34 0.34 0 0 Z " fill="#5DB6DF" transform="translate(91,680)"/>
<path d="M0 0 C0.66 0.33 1.32 0.66 2 1 C0.75 3 0.75 3 -1 5 C-2.32 5 -3.64 5 -5 5 C-5.3403125 5.8971875 -5.3403125 5.8971875 -5.6875 6.8125 C-8.60543469 11.67572449 -13.78140016 12.66976867 -19 14 C-15.53233124 10.17483962 -11.54420806 7.54245288 -7.25 4.75 C-6.20392578 4.06164062 -6.20392578 4.06164062 -5.13671875 3.359375 C-3.42725789 2.23534594 -1.71400488 1.11708776 0 0 Z " fill="#A4D1B3" transform="translate(528,458)"/>
<path d="M0 0 C0.66 0.33 1.32 0.66 2 1 C-1.92095071 5.42687984 -6.41240248 8.90090254 -12 11 C-14.13647461 10.55126953 -14.13647461 10.55126953 -16 10 C-13.38321437 8.29948946 -10.75537761 6.61689493 -8.125 4.9375 C-7.37863281 4.45216797 -6.63226563 3.96683594 -5.86328125 3.46679688 C-5.14785156 3.01240234 -4.43242187 2.55800781 -3.6953125 2.08984375 C-3.03547363 1.66566162 -2.37563477 1.24147949 -1.69580078 0.80444336 C-1.13618652 0.53897705 -0.57657227 0.27351074 0 0 Z " fill="#86C7E0" transform="translate(271,616)"/>
<path d="M0 0 C0.66 0 1.32 0 2 0 C2 0.99 2 1.98 2 3 C1.34 3 0.68 3 0 3 C-0.20625 3.54269531 -0.4125 4.08539063 -0.625 4.64453125 C-2.53249144 7.91219415 -5.20398661 10.19812487 -8 12.6875 C-8.5465625 13.18572266 -9.093125 13.68394531 -9.65625 14.19726562 C-13.70117781 17.85058891 -13.70117781 17.85058891 -16 19 C-14.501529 15.45815946 -12.45084115 13.27223438 -9.6875 10.625 C-6.98215721 7.99359745 -4.40841001 5.3944704 -2.0625 2.4375 C-1.381875 1.633125 -0.70125 0.82875 0 0 Z " fill="#A8E1F3" transform="translate(663,217)"/>
<path d="M0 0 C0.66 0.33 1.32 0.66 2 1 C1.02433888 2.16959987 0.044375 3.33561177 -0.9375 4.5 C-1.48277344 5.1496875 -2.02804687 5.799375 -2.58984375 6.46875 C-3.05519531 6.9740625 -3.52054688 7.479375 -4 8 C-4.33 8 -4.66 8 -5 8 C-5.33 14.93 -5.66 21.86 -6 29 C-6.33 29 -6.66 29 -7 29 C-7.20427691 25.29248633 -7.32794588 21.58642528 -7.4375 17.875 C-7.49615234 16.82828125 -7.55480469 15.7815625 -7.61523438 14.703125 C-7.78524894 7.02818157 -7.78524894 7.02818157 -5.41064453 3.91894531 C-3.67306654 2.42959275 -1.96855229 1.16229871 0 0 Z " fill="#AAD6B3" transform="translate(639,381)"/>
<path d="M0 0 C0.66 0.33 1.32 0.66 2 1 C0.89718873 2.27200971 -0.20730769 3.54255853 -1.3125 4.8125 C-1.92738281 5.52019531 -2.54226562 6.22789062 -3.17578125 6.95703125 C-4.73334335 8.70136739 -6.32658875 10.36778041 -8 12 C-8.99 11.67 -9.98 11.34 -11 11 C-9.92173635 9.72486237 -8.83714481 8.45507431 -7.75 7.1875 C-7.14671875 6.47980469 -6.5434375 5.77210938 -5.921875 5.04296875 C-4.07629602 3.08110329 -2.20054668 1.54330375 0 0 Z " fill="#49A5D3" transform="translate(31,798)"/>
<path d="M0 0 C0.66 0.33 1.32 0.66 2 1 C-2.18596495 6.47101802 -5.06035434 9.86699663 -12 11 C-8.19588166 7.08060535 -4.18423892 3.50897269 0 0 Z " fill="#AFD6C4" transform="translate(492,960)"/>
<path d="M0 0 C0.99 0.33 1.98 0.66 3 1 C-2.69477654 4.79651769 -8.16191129 6.3335653 -15 6 C-12.55483149 3.55483149 -10.82921693 3.27418478 -7.5 2.4375 C-3.6475828 1.49319669 -3.6475828 1.49319669 0 0 Z " fill="#96D9DE" transform="translate(850,42)"/>
<path d="M0 0 C0 0.66 0 1.32 0 2 C-2.34852528 3.17426264 -3.73774065 3.11508173 -6.3515625 3.09765625 C-7.20234375 3.09443359 -8.053125 3.09121094 -8.9296875 3.08789062 C-9.81914063 3.07951172 -10.70859375 3.07113281 -11.625 3.0625 C-12.5221875 3.05798828 -13.419375 3.05347656 -14.34375 3.04882812 C-16.56256648 3.03702591 -18.78125018 3.02056155 -21 3 C-21 2.67 -21 2.34 -21 2 C-18.06271706 1.66465271 -15.12520182 1.33163987 -12.1875 1 C-11.35412109 0.90460938 -10.52074219 0.80921875 -9.66210938 0.7109375 C-8.45844727 0.57558594 -8.45844727 0.57558594 -7.23046875 0.4375 C-6.12288208 0.31181641 -6.12288208 0.31181641 -4.99291992 0.18359375 C-3 0 -3 0 0 0 Z " fill="#8CC394" transform="translate(565,1065)"/>
<path d="M0 0 C2.80478513 2.80478513 2.96108361 4.88543472 3.09765625 8.796875 C3.08605469 9.77140625 3.07445312 10.7459375 3.0625 11.75 C3.05347656 12.73484375 3.04445313 13.7196875 3.03515625 14.734375 C3.02355469 15.48203125 3.01195312 16.2296875 3 17 C2.67 17 2.34 17 2 17 C1.4678559 14.91952703 0.94968214 12.83547707 0.4375 10.75 C0.14746094 9.58984375 -0.14257812 8.4296875 -0.44140625 7.234375 C-0.95179964 4.27909017 -1.02996165 2.75565899 0 0 Z " fill="#A0CFB0" transform="translate(518,865)"/>
<path d="M0 0 C0.99 0 1.98 0 3 0 C3 0.66 3 1.32 3 2 C3.99 2 4.98 2 6 2 C6 2.66 6 3.32 6 4 C4.02 4.66 2.04 5.32 0 6 C-0.66 5.34 -1.32 4.68 -2 4 C-1.34 2.68 -0.68 1.36 0 0 Z " fill="#42A7DA" transform="translate(94,679)"/>
<path d="M0 0 C0.66 0.33 1.32 0.66 2 1 C0.5484451 2.67257355 -0.91144409 4.33791758 -2.375 6 C-3.18710937 6.928125 -3.99921875 7.85625 -4.8359375 8.8125 C-5.55007812 9.534375 -6.26421875 10.25625 -7 11 C-7.66 11 -8.32 11 -9 11 C-7.44095325 7.17324889 -4.96833913 4.81992217 -2 2 C-1.34 1.34 -0.68 0.68 0 0 Z " fill="#64B3DA" transform="translate(30,540)"/>
<path d="M0 0 C0.85851562 0.36931641 0.85851562 0.36931641 1.734375 0.74609375 C1.734375 2.39609375 1.734375 4.04609375 1.734375 5.74609375 C1.074375 5.74609375 0.414375 5.74609375 -0.265625 5.74609375 C-0.265625 4.42609375 -0.265625 3.10609375 -0.265625 1.74609375 C-2.905625 4.05609375 -5.545625 6.36609375 -8.265625 8.74609375 C-8.925625 8.41609375 -9.585625 8.08609375 -10.265625 7.74609375 C-9.03163437 6.37732259 -7.77781877 5.02640209 -6.515625 3.68359375 C-5.81953125 2.92949219 -5.1234375 2.17539063 -4.40625 1.3984375 C-2.265625 -0.25390625 -2.265625 -0.25390625 0 0 Z " fill="#CDE3A9" transform="translate(798.265625,253.25390625)"/>
<path d="M0 0 C0.66 0.33 1.32 0.66 2 1 C-0.57784846 3.64752004 -2.91648098 5.94432065 -6 8 C-7.32 7.67 -8.64 7.34 -10 7 C-6.7 4.69 -3.4 2.38 0 0 Z " fill="#80CBEC" transform="translate(182,620)"/>
<path d="M0 0 C0.66 0.33 1.32 0.66 2 1 C-1 4 -4 7 -7 10 C-7.4375 7.8125 -7.4375 7.8125 -7 5 C-4.86004673 3.01558218 -2.49824035 1.4976696 0 0 Z " fill="#82C3B8" transform="translate(431,520)"/>
<path d="M0 0 C0.66 0 1.32 0 2 0 C1.85764543 1.72945653 1.71095618 3.45855654 1.5625 5.1875 C1.48128906 6.15042969 1.40007813 7.11335937 1.31640625 8.10546875 C1.02333849 10.78649602 0.57296246 13.3662986 0 16 C-0.33 16 -0.66 16 -1 16 C-1.02725341 14.2709226 -1.04650987 12.54171824 -1.0625 10.8125 C-1.07410156 9.84957031 -1.08570313 8.88664063 -1.09765625 7.89453125 C-1.00486622 5.14423487 -0.62111685 2.67520409 0 0 Z " fill="#ADE1E2" transform="translate(873,146)"/>
<path d="M0 0 C0 3 0 3 -1.53125 4.82421875 C-2.1809375 5.43910156 -2.830625 6.05398438 -3.5 6.6875 C-4.1496875 7.31011719 -4.799375 7.93273437 -5.46875 8.57421875 C-5.9740625 9.04472656 -6.479375 9.51523437 -7 10 C-7.5703125 8.09765625 -7.5703125 8.09765625 -8 6 C-5.96727569 3.1767718 -2.98590998 1.69470567 0 0 Z " fill="#4BABD4" transform="translate(238,430)"/>
<path d="M0 0 C0.33 0 0.66 0 1 0 C0.56826373 5.09448798 0.24599784 8.84512277 -3 13 C-3.66 13 -4.32 13 -5 13 C-3.58192622 8.52761347 -1.88695626 4.28853694 0 0 Z " fill="#9ACDAE" transform="translate(516,925)"/>
<path d="M0 0 C0.66 0 1.32 0 2 0 C1.82374165 2.37948772 1.30280227 3.70225849 -0.40234375 5.37890625 C-1.90649092 6.62115486 -3.45129851 7.81376056 -5 9 C-5.66 8.67 -6.32 8.34 -7 8 C-5.625 6 -5.625 6 -4 4 C-3.34 4 -2.68 4 -2 4 C-2 3.34 -2 2.68 -2 2 C-1.34 2 -0.68 2 0 2 C0 1.34 0 0.68 0 0 Z " fill="#8BD7F2" transform="translate(588,293)"/>
<path d="M0 0 C0.33 0.99 0.66 1.98 1 3 C-1.35277269 5.72426311 -3.62496331 6.8141763 -7 8 C-7.66 6.68 -8.32 5.36 -9 4 C-8.01 4.33 -7.02 4.66 -6 5 C-4.32419948 4.02792965 -4.32419948 4.02792965 -2.8125 2.5625 C-1.884375 1.716875 -0.95625 0.87125 0 0 Z " fill="#AED6C8" transform="translate(473,739)"/>
<path d="M0 0 C1.11375 0.3403125 1.11375 0.3403125 2.25 0.6875 C1.25 2.6875 1.25 2.6875 -0.81640625 3.5390625 C-2.05197266 3.92191406 -2.05197266 3.92191406 -3.3125 4.3125 C-4.13878906 4.57289063 -4.96507812 4.83328125 -5.81640625 5.1015625 C-6.45449219 5.29492188 -7.09257813 5.48828125 -7.75 5.6875 C-6.3502077 1.48812309 -4.58927239 -0.52150823 0 0 Z " fill="#C1E5F2" transform="translate(60.75,701.3125)"/>
<path d="M0 0 C0.33 0 0.66 0 1 0 C0.03644647 10.55808656 0.03644647 10.55808656 -1 15 C-1.33 15 -1.66 15 -2 15 C-2.05429959 13.25034642 -2.09292823 11.50020213 -2.125 9.75 C-2.15980469 8.28820312 -2.15980469 8.28820312 -2.1953125 6.796875 C-1.99862781 3.9803502 -1.44568916 2.39050964 0 0 Z " fill="#B3E3E6" transform="translate(854,248)"/>
<path d="M0 0 C0.66 0.33 1.32 0.66 2 1 C1.01 3.31 0.02 5.62 -1 8 C-1.99 7.67 -2.98 7.34 -4 7 C-3.34 7 -2.68 7 -2 7 C-2 6.34 -2 5.68 -2 5 C-3.65 5.33 -5.3 5.66 -7 6 C-4.83312509 3.72478134 -2.54379491 1.84205838 0 0 Z " fill="#8FCEEA" transform="translate(85,684)"/>
<path d="M0 0 C0.66 0.33 1.32 0.66 2 1 C-1.44615385 6.78461538 -1.44615385 6.78461538 -4.25 7.875 C-4.8275 7.91625 -5.405 7.9575 -6 8 C-4.55746343 4.63408134 -2.66735273 2.48952921 0 0 Z " fill="#8DD8F5" transform="translate(559,321)"/>
<path d="M0 0 C0.66 0.33 1.32 0.66 2 1 C-2.14285714 7.42857143 -2.14285714 7.42857143 -5 10 C-5.66 9.67 -6.32 9.34 -7 9 C-4.69 6.03 -2.38 3.06 0 0 Z " fill="#79BA9C" transform="translate(488,723)"/>
<path d="M0 0 C0.66 0.33 1.32 0.66 2 1 C1.67 2.32 1.34 3.64 1 5 C-0.98 5.33 -2.96 5.66 -5 6 C-3.63016497 2.83884224 -3.0109362 2.0072908 0 0 Z " fill="#6FBFE4" transform="translate(71,693)"/>
<path d="M0 0 C-5.14285714 4.42857143 -5.14285714 4.42857143 -9 5 C-6.81610567 0.16423399 -5.20641855 -0.13701101 0 0 Z " fill="#6FBCCA" transform="translate(344,576)"/>
<path d="M0 0 C0.66 0.33 1.32 0.66 2 1 C-0.25 3.5625 -0.25 3.5625 -3 6 C-4.32 5.67 -5.64 5.34 -7 5 C-4.69 3.35 -2.38 1.7 0 0 Z " fill="#BCDDC3" transform="translate(537,452)"/>
<path d="M0 0 C0.66 0.33 1.32 0.66 2 1 C0.02 3.31 -1.96 5.62 -4 8 C-4.66 7.67 -5.32 7.34 -6 7 C-4.77065985 3.31197956 -3.06140622 2.27643027 0 0 Z " fill="#8FC69B" transform="translate(639,381)"/>
<path d="M0 0 C0.66 0.33 1.32 0.66 2 1 C0.875 2.9375 0.875 2.9375 -1 5 C-4.1875 5.75 -4.1875 5.75 -7 6 C-4.74259377 3.66475218 -2.7194239 1.81294927 0 0 Z " fill="#BBDCC3" transform="translate(528,458)"/>
<path d="M0 0 C2.25 0.25 2.25 0.25 4 1 C2.02 2.32 0.04 3.64 -2 5 C-2.66 4.67 -3.32 4.34 -4 4 C-2.25 1.9375 -2.25 1.9375 0 0 Z " fill="#98D9F6" transform="translate(475,456)"/>
<path d="M0 0 C0.66 0 1.32 0 2 0 C3.85776765 3.13498292 4.20140476 5.37471432 4 9 C1.49701566 6.06171403 0.53069061 3.82097239 0 0 Z " fill="#A1DDE1" transform="translate(825,224)"/>
</svg>
